{
  "accessors": [
    {
      "bufferView": 2,
      "componentType": 5126,
      "count": 65532,
      "max": [
        0.9872310161590576,
        0.9872304201126099,
        0.9975767135620117
      ],
      "min": [
        -0.18889819085597992,
        -0.9872307181358337,
        -0.9975767135620117
      ],
      "type": "VEC3"
    },
    {
      "bufferView": 2,
      "byteOffset": 786384,
      "componentType": 5126,
      "count": 65532,
      "max": [
        0.9998497366905212,
        0.999849796295166,
        0.9975134134292603
      ],
      "min": [
        -0.1790914386510849,
        -0.9998497366905212,
        -0.9975134134292603
      ],
      "type": "VEC3"
    },
    {
      "bufferView": 1,
      "componentType": 5126,
      "count": 65532,
      "max": [
        0.7812500596046448,
        1.0000001192092896
      ],
      "min": [
        0.2499999701976776,
        0.0
      ],
      "type": "VEC2"
    },
    {
      "bufferView": 0,
      "componentType": 5125,
      "count": 98298,
      "type": "SCALAR"
    },
    {
      "bufferView": 2,
      "byteOffset": 1572768,
      "componentType": 5126,
      "count": 61444,
      "max": [
        0.18889833986759186,
        0.9872304201126099,
        0.9975767135620117
      ],
      "min": [
        -0.9872304201126099,
        -0.9872307181358337,
        -0.9975767135620117
      ],
      "type": "VEC3"
    },
    {
      "bufferView": 2,
      "byteOffset": 2310096,
      "componentType": 5126,
      "count": 61444,
      "max": [
        0.17908968031406403,
        0.9998497366905212,
        0.9975133538246155
      ],
      "min": [
        -0.9998497366905212,
        -0.9998497366905212,
        -0.9975133538246155
      ],
      "type": "VEC3"
    },
    {
      "bufferView": 1,
      "byteOffset": 524256,
      "componentType": 5126,
      "count": 61444,
      "max": [
        1.000000238418579,
        1.0000001192092896
      ],
      "min": [
        0.0,
        0.0
      ],
      "type": "VEC2"
    },
    {
      "bufferView": 0,
      "byteOffset": 393192,
      "componentType": 5125,
      "count": 92166,
      "type": "SCALAR"
    },
    {
      "bufferView": 3,
      "componentType": 5126,
      "count": 1001,
      "max": [
        20.83333396911621
      ],
      "min": [
        0.0
      ],
      "type": "SCALAR"
    },
    {
      "bufferView": 5,
      "componentType": 5126,
      "count": 1001,
      "max": [
        0.6642772555351257,
        0.7071086764335632,
        0.7071052193641663,
        0.7071047425270081
      ],
      "min": [
        -0.7071058750152588,
        -0.6636671423912048,
        -0.5963677763938904,
        -0.4996156692504883
      ],
      "type": "VEC4"
    },
    {
      "bufferView": 3,
      "byteOffset": 4004,
      "componentType": 5126,
      "count": 1001,
      "max": [
        20.83333396911621
      ],
      "min": [
        0.0
      ],
      "type": "SCALAR"
    },
    {
      "bufferView": 5,
      "byteOffset": 16016,
      "componentType": 5126,
      "count": 1001,
      "max": [
        0.664277970790863,
        0.7071112394332886,
        0.7071025967597961,
        0.7071057558059692
      ],
      "min": [
        -0.7071058750152588,
        -0.6636686325073242,
        -0.5963678359985352,
        -0.4996143877506256
      ],
      "type": "VEC4"
    },
    {
      "bufferView": 3,
      "byteOffset": 8008,
      "componentType": 5126,
      "count": 1001,
      "max": [
        20.83333396911621
      ],
      "min": [
        0.0
      ],
      "type": "SCALAR"
    },
    {
      "bufferView": 5,
      "byteOffset": 32032,
      "componentType": 5126,
      "count": 1001,
      "max": [
        0.18560168147087097,
        0.9762964248657227,
        0.2164396494626999,
        0.9762960076332092
      ],
      "min": [
        -0.21643775701522827,
        -0.8371999263763428,
        -0.11041003465652466,
        -0.4980309307575226
      ],
      "type": "VEC4"
    },
    {
      "bufferView": 3,
      "byteOffset": 12012,
      "componentType": 5126,
      "count": 798,
      "max": [
        16.625
      ],
      "min": [
        0.0
      ],
      "type": "SCALAR"
    },
    {
      "bufferView": 4,
      "componentType": 5126,
      "count": 798,
      "max": [
        6850.41796875,
        3166.89990234375,
        7611265.0
      ],
      "min": [
        -1253.6383056640625,
        132.4239959716797,
        101069.578125
      ],
      "type": "VEC3"
    },
    {
      "bufferView": 3,
      "byteOffset": 15204,
      "componentType": 5126,
      "count": 4,
      "max": [
        16.625
      ],
      "min": [
        0.0
      ],
      "type": "SCALAR"
    },
    {
      "bufferView": 4,
      "byteOffset": 9576,
      "componentType": 5126,
      "count": 4,
      "max": [
        140.00001525878906,
        140.00001525878906,
        140.0
      ],
      "min": [
        140.0,
        140.0,
        140.0
      ],
      "type": "VEC3"
    },
    {
      "bufferView": 3,
      "byteOffset": 15220,
      "componentType": 5126,
      "count": 798,
      "max": [
        16.625
      ],
      "min": [
        0.0
      ],
      "type": "SCALAR"
    },
    {
      "bufferView": 5,
      "byteOffset": 48048,
      "componentType": 5126,
      "count": 798,
      "max": [
        -0.004306385293602943,
        0.1627444326877594,
        0.21574538946151733,
        0.9742304682731628
      ],
      "min": [
        -0.033250898122787476,
        0.06548601388931274,
        0.21297870576381683,
        0.9628337025642395
      ],
      "type": "VEC4"
    },
    {
      "bufferView": 3,
      "byteOffset": 18412,
      "componentType": 5126,
      "count": 998,
      "max": [
        20.79166603088379
      ],
      "min": [
        0.0
      ],
      "type": "SCALAR"
    },
    {
      "bufferView": 5,
      "byteOffset": 60816,
      "componentType": 5126,
      "count": 998,
      "max": [
        0.6640008687973022,
        0.7071064114570618,
        0.7071065306663513,
        0.7071050405502319
      ],
      "min": [
        -0.7071059346199036,
        -0.6638475060462952,
        -0.5945672988891602,
        -0.49904587864875793
      ],
      "type": "VEC4"
    },
    {
      "bufferView": 3,
      "byteOffset": 22404,
      "componentType": 5126,
      "count": 4,
      "max": [
        20.79166603088379
      ],
      "min": [
        0.0
      ],
      "type": "SCALAR"
    },
    {
      "bufferView": 4,
      "byteOffset": 9624,
      "componentType": 5126,
      "count": 4,
      "max": [
        140.00001525878906,
        140.0,
        140.00001525878906
      ],
      "min": [
        140.0,
        140.0,
        140.00001525878906
      ],
      "type": "VEC3"
    },
    {
      "bufferView": 3,
      "byteOffset": 22420,
      "componentType": 5126,
      "count": 998,
      "max": [
        20.79166603088379
      ],
      "min": [
        0.0
      ],
      "type": "SCALAR"
    },
    {
      "bufferView": 5,
      "byteOffset": 76784,
      "componentType": 5126,
      "count": 998,
      "max": [
        -0.6903455853462219,
        0.030843563377857208,
        0.3265056312084198,
        0.6903454661369324
      ],
      "min": [
        -0.7071068286895752,
        -0.15304595232009888,
        0.15304593741893768,
        0.6272112727165222
      ],
      "type": "VEC4"
    },
    {
      "bufferView": 3,
      "byteOffset": 26412,
      "componentType": 5126,
      "count": 1,
      "max": [
        0.0
      ],
      "min": [
        0.0
      ],
      "type": "SCALAR"
    },
    {
      "bufferView": 4,
      "byteOffset": 9672,
      "componentType": 5126,
      "count": 1,
      "max": [
        0.0,
        0.0,
        -0.048828125
      ],
      "min": [
        0.0,
        0.0,
        -0.048828125
      ],
      "type": "VEC3"
    },
    {
      "bufferView": 3,
      "byteOffset": 26416,
      "componentType": 5126,
      "count": 1,
      "max": [
        0.0
      ],
      "min": [
        0.0
      ],
      "type": "SCALAR"
    },
    {
      "bufferView": 4,
      "byteOffset": 9684,
      "componentType": 5126,
      "count": 1,
      "max": [
        100.00001525878906,
        100.0,
        100.00001525878906
      ],
      "min": [
        100.00001525878906,
        100.0,
        100.00001525878906
      ],
      "type": "VEC3"
    },
    {
      "bufferView": 3,
      "byteOffset": 26420,
      "componentType": 5126,
      "count": 1001,
      "max": [
        20.83333396911621
      ],
      "min": [
        0.0
      ],
      "type": "SCALAR"
    },
    {
      "bufferView": 5,
      "byteOffset": 92752,
      "componentType": 5126,
      "count": 1001,
      "max": [
        0.6642784476280212,
        0.7071101665496826,
        0.7071037888526917,
        0.7071051001548767
      ],
      "min": [
        -0.707105815410614,
        -0.6636680364608765,
        -0.5963678359985352,
        -0.4996134340763092
      ],
      "type": "VEC4"
    },
    {
      "bufferView": 3,
      "byteOffset": 30424,
      "componentType": 5126,
      "count": 998,
      "max": [
        20.79166603088379
      ],
      "min": [
        0.0
      ],
      "type": "SCALAR"
    },
    {
      "bufferView": 5,
      "byteOffset": 108768,
      "componentType": 5126,
      "count": 998,
      "max": [
        0.6643064022064209,
        0.7071064114570618,
        0.7071065306663513,
        0.707105815410614
      ],
      "min": [
        -0.7071051597595215,
        -0.6641536951065063,
        -0.5960087776184082,
        -0.49967625737190247
      ],
      "type": "VEC4"
    },
    {
      "bufferView": 3,
      "byteOffset": 34416,
      "componentType": 5126,
      "count": 998,
      "max": [
        20.79166603088379
      ],
      "min": [
        0.0
      ],
      "type": "SCALAR"
    },
    {
      "bufferView": 5,
      "byteOffset": 124736,
      "componentType": 5126,
      "count": 998,
      "max": [
        0.6640008687973022,
        0.7071064114570618,
        0.7071065306663513,
        0.7071050405502319
      ],
      "min": [
        -0.7071059346199036,
        -0.6638475060462952,
        -0.5945672988891602,
        -0.49904587864875793
      ],
      "type": "VEC4"
    },
    {
      "bufferView": 3,
      "byteOffset": 38408,
      "componentType": 5126,
      "count": 998,
      "max": [
        20.79166603088379
      ],
      "min": [
        0.0
      ],
      "type": "SCALAR"
    },
    {
      "bufferView": 5,
      "byteOffset": 140704,
      "componentType": 5126,
      "count": 998,
      "max": [
        0.6640008687973022,
        0.7071064114570618,
        0.7071065306663513,
        0.7071050405502319
      ],
      "min": [
        -0.7071059346199036,
        -0.6638475060462952,
        -0.5945672988891602,
        -0.49904587864875793
      ],
      "type": "VEC4"
    },
    {
      "bufferView": 3,
      "byteOffset": 42400,
      "componentType": 5126,
      "count": 998,
      "max": [
        20.79166603088379
      ],
      "min": [
        0.0
      ],
      "type": "SCALAR"
    },
    {
      "bufferView": 5,
      "byteOffset": 156672,
      "componentType": 5126,
      "count": 998,
      "max": [
        0.6640008687973022,
        0.7071064114570618,
        0.7071065306663513,
        0.7071050405502319
      ],
      "min": [
        -0.7071059346199036,
        -0.6638475060462952,
        -0.5945672988891602,
        -0.49904587864875793
      ],
      "type": "VEC4"
    },
    {
      "bufferView": 3,
      "byteOffset": 46392,
      "componentType": 5126,
      "count": 998,
      "max": [
        20.79166603088379
      ],
      "min": [
        0.0
      ],
      "type": "SCALAR"
    },
    {
      "bufferView": 5,
      "byteOffset": 172640,
      "componentType": 5126,
      "count": 998,
      "max": [
        0.6630777716636658,
        0.7071064114570618,
        0.7071065306663513,
        0.7071064114570618
      ],
      "min": [
        -0.7071051597595215,
        -0.6638475060462952,
        -0.5945672988891602,
        -0.49937883019447327
      ],
      "type": "VEC4"
    },
    {
      "bufferView": 3,
      "byteOffset": 50384,
      "componentType": 5126,
      "count": 998,
      "max": [
        20.79166603088379
      ],
      "min": [
        0.0
      ],
      "type": "SCALAR"
    },
    {
      "bufferView": 5,
      "byteOffset": 188608,
      "componentType": 5126,
      "count": 998,
      "max": [
        0.6640008687973022,
        0.7071064114570618,
        0.7071065306663513,
        0.7071050405502319
      ],
      "min": [
        -0.7071059346199036,
        -0.6638475060462952,
        -0.5945672988891602,
        -0.49904587864875793
      ],
      "type": "VEC4"
    },
    {
      "bufferView": 3,
      "byteOffset": 54376,
      "componentType": 5126,
      "count": 998,
      "max": [
        20.79166603088379
      ],
      "min": [
        0.0
      ],
      "type": "SCALAR"
    },
    {
      "bufferView": 5,
      "byteOffset": 204576,
      "componentType": 5126,
      "count": 998,
      "max": [
        0.6640008687973022,
        0.7071064114570618,
        0.7071065306663513,
        0.7071050405502319
      ],
      "min": [
        -0.7071059346199036,
        -0.6638475060462952,
        -0.5945672988891602,
        -0.49904587864875793
      ],
      "type": "VEC4"
    }
  ],
  "animations": [
    {
      "channels": [
        {
          "sampler": 0,
          "target": {
            "node": 4,
            "path": "rotation"
          }
        }
      ],
      "name": "4. mars|7. saturn.001Action.002",
      "samplers": [
        {
          "input": 8,
          "interpolation": "LINEAR",
          "output": 9
        }
      ]
    },
    {
      "channels": [
        {
          "sampler": 0,
          "target": {
            "node": 4,
            "path": "rotation"
          }
        }
      ],
      "name": "4. mars|ringsAction",
      "samplers": [
        {
          "input": 10,
          "interpolation": "LINEAR",
          "output": 11
        }
      ]
    },
    {
      "channels": [
        {
          "sampler": 0,
          "target": {
            "node": 4,
            "path": "rotation"
          }
        }
      ],
      "name": "4. mars|saturn_ringAction",
      "samplers": [
        {
          "input": 12,
          "interpolation": "LINEAR",
          "output": 13
        }
      ]
    },
    {
      "channels": [
        {
          "sampler": 0,
          "target": {
            "node": 4,
            "path": "translation"
          }
        },
        {
          "sampler": 1,
          "target": {
            "node": 4,
            "path": "scale"
          }
        },
        {
          "sampler": 2,
          "target": {
            "node": 4,
            "path": "rotation"
          }
        }
      ],
      "name": "4. mars|spatial cameraAction",
      "samplers": [
        {
          "input": 14,
          "interpolation": "LINEAR",
          "output": 15
        },
        {
          "input": 16,
          "interpolation": "LINEAR",
          "output": 17
        },
        {
          "input": 18,
          "interpolation": "LINEAR",
          "output": 19
        }
      ]
    },
    {
      "channels": [
        {
          "sampler": 0,
          "target": {
            "node": 4,
            "path": "rotation"
          }
        }
      ],
      "name": "4. mars|SphereAction",
      "samplers": [
        {
          "input": 20,
          "interpolation": "LINEAR",
          "output": 21
        }
      ]
    },
    {
      "channels": [
        {
          "sampler": 0,
          "target": {
            "node": 4,
            "path": "scale"
          }
        },
        {
          "sampler": 1,
          "target": {
            "node": 4,
            "path": "rotation"
          }
        }
      ],
      "name": "4. mars|SphereAction.002",
      "samplers": [
        {
          "input": 22,
          "interpolation": "LINEAR",
          "output": 23
        },
        {
          "input": 24,
          "interpolation": "LINEAR",
          "output": 25
        }
      ]
    },
    {
      "channels": [
        {
          "sampler": 0,
          "target": {
            "node": 4,
            "path": "translation"
          }
        },
        {
          "sampler": 1,
          "target": {
            "node": 4,
            "path": "scale"
          }
        },
        {
          "sampler": 2,
          "target": {
            "node": 4,
            "path": "rotation"
          }
        }
      ],
      "name": "4. mars|uranus|Take 001|BaseLayer",
      "samplers": [
        {
          "input": 26,
          "interpolation": "LINEAR",
          "output": 27
        },
        {
          "input": 28,
          "interpolation": "LINEAR",
          "output": 29
        },
        {
          "input": 30,
          "interpolation": "LINEAR",
          "output": 31
        }
      ]
    },
    {
      "channels": [
        {
          "sampler": 0,
          "target": {
            "node": 4,
            "path": "rotation"
          }
        }
      ],
      "name": "4. mars|venusAction",
      "samplers": [
        {
          "input": 32,
          "interpolation": "LINEAR",
          "output": 33
        }
      ]
    },
    {
      "channels": [
        {
          "sampler": 0,
          "target": {
            "node": 4,
            "path": "rotation"
          }
        }
      ],
      "name": "4. mars|venusAction.001",
      "samplers": [
        {
          "input": 34,
          "interpolation": "LINEAR",
          "output": 35
        }
      ]
    },
    {
      "channels": [
        {
          "sampler": 0,
          "target": {
            "node": 4,
            "path": "rotation"
          }
        }
      ],
      "name": "4. mars|venusAction.002",
      "samplers": [
        {
          "input": 36,
          "interpolation": "LINEAR",
          "output": 37
        }
      ]
    },
    {
      "channels": [
        {
          "sampler": 0,
          "target": {
            "node": 4,
            "path": "rotation"
          }
        }
      ],
      "name": "4. mars|venusAction.003",
      "samplers": [
        {
          "input": 38,
          "interpolation": "LINEAR",
          "output": 39
        }
      ]
    },
    {
      "channels": [
        {
          "sampler": 0,
          "target": {
            "node": 4,
            "path": "rotation"
          }
        }
      ],
      "name": "4. mars|venusAction.004",
      "samplers": [
        {
          "input": 40,
          "interpolation": "LINEAR",
          "output": 41
        }
      ]
    },
    {
      "channels": [
        {
          "sampler": 0,
          "target": {
            "node": 4,
            "path": "rotation"
          }
        }
      ],
      "name": "4. mars|venusAction.005",
      "samplers": [
        {
          "input": 42,
          "interpolation": "LINEAR",
          "output": 43
        }
      ]
    },
    {
      "channels": [
        {
          "sampler": 0,
          "target": {
            "node": 4,
            "path": "rotation"
          }
        }
      ],
      "name": "4. mars|venusAction.008",
      "samplers": [
        {
          "input": 44,
          "interpolation": "LINEAR",
          "output": 45
        }
      ]
    }
  ],
  "asset": {
    "extras": {
      "author": "Topson_Noble (https://sketchfab.com/Topson_Noble)",
      "license": "CC-BY-4.0 (http://creativecommons.org/licenses/by/4.0/)",
      "source": "https://sketchfab.com/3d-models/planet-mars-1a2862763b1c428ba914691248ddb8fa",
      "title": "Planet Mars"
    },
    "generator": "Sketchfab-13.7.0",
    "version": "2.0"
  },
  "bufferViews": [
    {
      "buffer": 0,
      "byteLength": 761856,
      "name": "floatBufferViews",
      "target": 34963
    },
    {
      "buffer": 0,
      "byteLength": 1015808,
      "byteOffset": 761856,
      "byteStride": 8,
      "name": "floatBufferViews",
      "target": 34962
    },
    {
      "buffer": 0,
      "byteLength": 3047424,
      "byteOffset": 1777664,
      "byteStride": 12,
      "name": "floatBufferViews",
      "target": 34962
    },
    {
      "buffer": 0,
      "byteLength": 58368,
      "byteOffset": 4825088,
      "name": "floatBufferViews"
    },
    {
      "buffer": 0,
      "byteLength": 9696,
      "byteOffset": 4883456,
      "byteStride": 12,
      "name": "floatBufferViews"
    },
    {
      "buffer": 0,
      "byteLength": 220544,
      "byteOffset": 4893152,
      "byteStride": 16,
      "name": "floatBufferViews"
    }
  ],
  "buffers": [
    {
      "byteLength": 5113696,
      "uri": "mars.bin"
    }
  ],
  "images": [
    {
      "uri": "textures/mars_shader_baseColor.jpeg"
    }
  ],
  "materials": [
    {
      "doubleSided": true,
      "name": "mars_shader",
      "pbrMetallicRoughness": {
        "baseColorTexture": {
          "index": 0
        },
        "metallicFactor": 0.0
      }
    }
  ],
  "meshes": [
    {
      "name": "4. mars_mars shader_0",
      "primitives": [
        {
          "attributes": {
            "NORMAL": 1,
            "POSITION": 0,
            "TEXCOORD_0": 2
          },
          "indices": 3,
          "material": 0,
          "mode": 4
        }
      ]
    },
    {
      "name": "4. mars_mars shader_0",
      "primitives": [
        {
          "attributes": {
            "NORMAL": 5,
            "POSITION": 4,
            "TEXCOORD_0": 6
          },
          "indices": 7,
          "material": 0,
          "mode": 4
        }
      ]
    }
  ],
  "nodes": [
    {
      "children": [
        1
      ],
      "matrix": [
        1.0,
        0.0,
        0.0,
        0.0,
        0.0,
        2.220446049250313e-16,
        -1.0,
        0.0,
        0.0,
        1.0,
        2.220446049250313e-16,
        0.0,
        0.0,
        0.0,
        0.0,
        1.0
      ],
      "name": "Sketchfab_model"
    },
    {
      "children": [
        2
      ],
      "matrix": [
        0.009999999776482582,
        0.0,
        0.0,
        0.0,
        0.0,
        0.0,
        0.009999999776482582,
        0.0,
        0.0,
        -0.009999999776482582,
        0.0,
        0.0,
        0.0,
        0.0,
        0.0,
        1.0
      ],
      "name": "656dac23814e461180cce73bdfc761ec.fbx"
    },
    {
      "children": [
        3
      ],
      "name": "Object_2"
    },
    {
      "children": [
        4
      ],
      "name": "RootNode"
    },
    {
      "children": [
        5,
        6
      ],
      "name": "4. mars",
      "rotation": [
        -0.6903455853462219,
        -0.15304595232009888,
        0.15304593741893768,
        0.6903454661369324
      ],
      "scale": [
        140.00001525878906,
        140.0,
        140.00001525878906
      ],
      "translation": [
        0.0,
        0.0,
        693175.9375
      ]
    },
    {
      "mesh": 0,
      "name": "4. mars_mars shader_0"
    },
    {
      "mesh": 1,
      "name": "4. mars_mars shader_0"
    }
  ],
  "samplers": [
    {
      "magFilter": 9729,
      "minFilter": 9987,
      "wrapS": 10497,
      "wrapT": 10497
    }
  ],
  "scene": 0,
  "scenes": [
    {
      "name": "Sketchfab_Scene",
      "nodes": [
        0
      ]
    }
  ],
  "textures": [
    {
      "sampler": 0,
      "source": 0
    }
  ]
}
